<svg width="48" height="24" viewBox="0 0 48 24" fill="none" xmlns="http://www.w3.org/2000/svg">
<path d="M4.5 11.9H4V12.9H4.5V11.9ZM42 12.4L42.2864 12.8098L42.8908 12.3874L42.2747 11.9822L42 12.4ZM37.0685 6.82548L36.894 6.35692L35.9569 6.70597L36.1314 7.17452L37.0685 6.82548ZM36.161 17.5606L35.9216 17.9996L36.7996 18.4784L37.0389 18.0394L36.161 17.5606ZM4.5 12.9H42V11.9H4.5V12.9ZM36.1314 7.17452C36.3907 7.87058 36.8884 8.56817 37.4539 9.20784C38.0244 9.85326 38.6905 10.469 39.3193 11.0001C39.9493 11.5322 40.5492 11.9855 40.9912 12.3055C41.2125 12.4657 41.3948 12.593 41.5223 12.6806C41.5861 12.7244 41.6362 12.7583 41.6707 12.7814C41.6879 12.793 41.7012 12.8018 41.7104 12.8079C41.715 12.811 41.7186 12.8133 41.721 12.815C41.7223 12.8158 41.7232 12.8164 41.7239 12.8169C41.7243 12.8171 41.7246 12.8173 41.7248 12.8175C41.7249 12.8175 41.725 12.8176 41.7251 12.8176C41.7252 12.8177 41.7252 12.8178 42 12.4C42.2747 11.9822 42.2748 11.9823 42.2748 11.9823C42.2748 11.9823 42.2748 11.9823 42.2747 11.9823C42.2747 11.9822 42.2746 11.9821 42.2744 11.982C42.274 11.9818 42.2733 11.9813 42.2724 11.9807C42.2706 11.9795 42.2677 11.9776 42.2637 11.975C42.2559 11.9698 42.2439 11.9618 42.228 11.9511C42.1963 11.9298 42.1491 11.8979 42.0884 11.8562C41.9669 11.7728 41.7915 11.6503 41.5777 11.4956C41.1497 11.1857 40.5706 10.748 39.9646 10.2362C39.3575 9.72338 38.7305 9.14213 38.2031 8.54551C37.6706 7.94315 37.2653 7.35363 37.0685 6.82548L36.1314 7.17452ZM42 12.4C41.7135 11.9902 41.7134 11.9902 41.7134 11.9903C41.7133 11.9903 41.7132 11.9904 41.7131 11.9905C41.7129 11.9906 41.7127 11.9908 41.7124 11.991C41.7117 11.9915 41.7109 11.9921 41.7097 11.9928C41.7075 11.9944 41.7044 11.9966 41.7003 11.9995C41.6921 12.0053 41.6803 12.0136 41.6649 12.0246C41.6342 12.0464 41.5896 12.0785 41.5325 12.12C41.4185 12.203 41.2548 12.3239 41.0543 12.477C40.6535 12.7829 40.104 13.2186 39.5084 13.7383C38.3304 14.7661 36.9223 16.1647 36.161 17.5606L37.0389 18.0394C37.7101 16.8087 39.002 15.5072 40.1659 14.4918C40.7412 13.9897 41.2731 13.5679 41.6611 13.2718C41.8549 13.1239 42.0123 13.0076 42.1209 12.9286C42.1751 12.8892 42.2171 12.859 42.2452 12.839C42.2593 12.829 42.2699 12.8215 42.2768 12.8166C42.2803 12.8141 42.2828 12.8123 42.2844 12.8112C42.2853 12.8106 42.2858 12.8102 42.2862 12.81C42.2863 12.8099 42.2864 12.8098 42.2865 12.8098C42.2865 12.8098 42.2865 12.8098 42.2865 12.8098C42.2865 12.8098 42.2864 12.8098 42 12.4Z" fill="white" fill-opacity="0.87"/>
</svg>
